<svg width="49" height="43" viewBox="0 0 49 43" fill="none" xmlns="http://www.w3.org/2000/svg">
<path fill-rule="evenodd" clip-rule="evenodd" d="M24.5 41.0455C36.8009 41.0455 46.7727 32.2947 46.7727 21.5C46.7727 10.7053 36.8009 1.95455 24.5 1.95455C12.1991 1.95455 2.22727 10.7053 2.22727 21.5C2.22727 32.2947 12.1991 41.0455 24.5 41.0455ZM24.5 43C38.031 43 49 33.3741 49 21.5C49 9.62588 38.031 0 24.5 0C10.969 0 0 9.62588 0 21.5C0 33.3741 10.969 43 24.5 43Z" fill="#575757"/>
<path fill-rule="evenodd" clip-rule="evenodd" d="M44.2949 24.2803C44.324 24.1198 44.3505 23.9586 44.3746 23.7967C44.4864 23.0447 44.544 22.2778 44.544 21.4991C44.544 20.7204 44.4864 19.9535 44.3746 19.2016C44.3505 19.0397 44.324 18.8785 44.2949 18.718C44.2657 18.5567 44.234 18.3962 44.1999 18.2364C43.6063 18.3189 43.1921 18.8018 43.2703 19.328C43.3759 20.0381 43.4304 20.7628 43.4304 21.4991C43.4304 22.2354 43.3759 22.9601 43.2703 23.6702C43.1921 24.1964 43.6063 24.6794 44.1999 24.7618C44.234 24.6021 44.2657 24.4415 44.2949 24.2803ZM43.4206 27.3198C42.8595 27.1313 42.2259 27.3682 41.9943 27.8583C41.3563 29.2085 40.521 30.4692 39.5196 31.6127C39.1511 32.0335 39.2335 32.6337 39.6999 32.9663C39.821 32.8429 39.9401 32.7179 40.0573 32.5915C40.1744 32.4652 40.2895 32.3374 40.4026 32.2082C41.4626 30.9977 42.3472 29.6628 43.023 28.2327C43.094 28.0824 43.1627 27.9311 43.2291 27.7788C43.2953 27.6268 43.3591 27.4738 43.4206 27.3198ZM37.5659 34.839C37.1868 34.4297 36.5029 34.3575 36.0234 34.6808C34.7203 35.5596 33.2837 36.2926 31.7452 36.8525C31.1866 37.0557 30.9167 37.6117 31.1315 38.1042C31.307 38.0502 31.4813 37.9942 31.6545 37.9361C31.8281 37.8778 32.0005 37.8175 32.1717 37.7552C33.8014 37.1622 35.3226 36.3859 36.7019 35.4557C36.8492 35.3564 36.9948 35.2554 37.1387 35.1527C37.2828 35.0498 37.4252 34.9453 37.5659 34.839ZM28.2166 38.788C28.1226 38.2671 27.5723 37.9036 26.9727 37.9723C26.1634 38.0649 25.3376 38.1127 24.4986 38.1127C23.6595 38.1127 22.8337 38.0649 22.0245 37.9723C21.4249 37.9036 20.8746 38.2671 20.7806 38.788C20.9627 38.818 21.1456 38.8458 21.3294 38.8714C21.5123 38.8969 21.696 38.9202 21.8805 38.9413C22.7373 39.0394 23.6112 39.09 24.4986 39.09C25.3859 39.09 26.2598 39.0394 27.1167 38.9413C27.3012 38.9202 27.4849 38.8969 27.6678 38.8714C27.8516 38.8458 28.0345 38.818 28.2166 38.788ZM17.8657 38.1042C18.0805 37.6117 17.8105 37.0557 17.252 36.8525C15.7135 36.2926 14.2769 35.5596 12.9738 34.6808C12.4943 34.3575 11.8103 34.4297 11.4313 34.839C11.572 34.9453 11.7144 35.0498 11.8584 35.1527C12.0024 35.2554 12.148 35.3564 12.2952 35.4557C13.6746 36.3859 15.1958 37.1622 16.8254 37.7552C16.9967 37.8175 17.1691 37.8778 17.3427 37.9361C17.5159 37.9942 17.6902 38.0502 17.8657 38.1042ZM9.29726 32.9663C9.76371 32.6337 9.84604 32.0335 9.47755 31.6127C8.47618 30.4692 7.64087 29.2085 7.00288 27.8583C6.77128 27.3682 6.13769 27.1313 5.57654 27.3198C5.63804 27.4738 5.70191 27.6268 5.76811 27.7788C5.83447 27.9311 5.90317 28.0824 5.97418 28.2327C6.64997 29.6628 7.53454 30.9977 8.59453 32.2082C8.70766 32.3374 8.8228 32.4652 8.93989 32.5915C9.05706 32.7179 9.1762 32.8429 9.29726 32.9663ZM4.79726 24.7618C5.39082 24.6794 5.80505 24.1964 5.72684 23.6702C5.62128 22.9601 5.56676 22.2354 5.56676 21.4991C5.56676 20.7628 5.62128 20.0381 5.72684 19.328C5.80505 18.8018 5.39082 18.3189 4.79727 18.2364C4.76312 18.3962 4.73143 18.5567 4.70224 18.718C4.6732 18.8785 4.64662 19.0397 4.62256 19.2016C4.51078 19.9535 4.45312 20.7204 4.45312 21.4991C4.45312 22.2778 4.51078 23.0447 4.62255 23.7966C4.64662 23.9586 4.6732 24.1198 4.70224 24.2803C4.73143 24.4415 4.76312 24.6021 4.79726 24.7618ZM5.57654 15.6784C6.13769 15.8669 6.77128 15.63 7.00288 15.1399C7.64087 13.7898 8.47618 12.529 9.47755 11.3855C9.84604 10.9647 9.76371 10.3645 9.29726 10.0319C9.1762 10.1554 9.05706 10.2803 8.93988 10.4067C8.8228 10.5331 8.70766 10.6609 8.59453 10.79C7.53454 12.0005 6.64997 13.3354 5.97418 14.7655C5.90317 14.9158 5.83447 15.0671 5.76811 15.2195C5.70191 15.3714 5.63804 15.5244 5.57654 15.6784ZM11.4313 8.15917C11.8103 8.56851 12.4943 8.64076 12.9738 8.31739C14.2769 7.43864 15.7135 6.70561 17.252 6.14574C17.8105 5.9425 18.0805 5.38649 17.8657 4.89406C17.6902 4.94802 17.5159 5.00407 17.3427 5.06217C17.1691 5.1204 16.9967 5.1807 16.8254 5.24301C15.1958 5.83605 13.6746 6.6123 12.2952 7.54249C12.148 7.64178 12.0024 7.74281 11.8584 7.84556C11.7144 7.94839 11.572 8.05294 11.4313 8.15917ZM20.7806 4.2102C20.8746 4.73107 21.4249 5.09459 22.0245 5.02595C22.8337 4.93332 23.6595 4.88548 24.4986 4.88548C25.3376 4.88548 26.1634 4.93332 26.9727 5.02595C27.5723 5.09459 28.1226 4.73108 28.2166 4.2102C28.0345 4.18024 27.8516 4.15243 27.6678 4.12682C27.4849 4.10133 27.3012 4.07801 27.1167 4.05689C26.2598 3.9588 25.3859 3.9082 24.4986 3.9082C23.6112 3.9082 22.7373 3.9588 21.8805 4.05689C21.696 4.07801 21.5123 4.10133 21.3294 4.12682C21.1456 4.15243 20.9627 4.18024 20.7806 4.2102ZM31.1315 4.89406C30.9167 5.38649 31.1866 5.9425 31.7452 6.14574C33.2837 6.70561 34.7203 7.43864 36.0234 8.31739C36.5029 8.64076 37.1868 8.56851 37.5659 8.15917C37.4252 8.05294 37.2828 7.94839 37.1387 7.84556C36.9948 7.74281 36.8492 7.64178 36.7019 7.54249C35.3226 6.6123 33.8014 5.83605 32.1717 5.24301C32.0005 5.18069 31.8281 5.1204 31.6545 5.06217C31.4813 5.00407 31.307 4.94802 31.1315 4.89406ZM39.6999 10.0319C39.2335 10.3645 39.1511 10.9647 39.5196 11.3855C40.521 12.529 41.3563 13.7898 41.9943 15.1399C42.2259 15.63 42.8595 15.8669 43.4206 15.6784C43.3591 15.5244 43.2953 15.3714 43.2291 15.2195C43.1627 15.0671 43.094 14.9158 43.023 14.7655C42.3472 13.3354 41.4626 12.0005 40.4026 10.79C40.2895 10.6609 40.1744 10.5331 40.0573 10.4067C39.9401 10.2803 39.821 10.1554 39.6999 10.0319Z" fill="#575757"/>
<path fill-rule="evenodd" clip-rule="evenodd" d="M27.9977 18.2501C27.998 18.2812 27.9982 18.3124 27.9982 18.3438C27.9982 19.782 27.6484 20.8943 27.0738 21.7442C26.5006 22.592 25.7269 23.1442 24.9332 23.5028C23.4113 24.1903 21.7594 24.1883 21.1361 24.1876C21.1169 24.1876 21.0987 24.1876 21.0815 24.1876H19.357L26.6882 31.6496L25.9748 32.3505L16.9727 23.1876H18.1648H21.0815C21.0931 23.1876 21.105 23.1876 21.1173 23.1876C21.7309 23.1878 23.2 23.1884 24.5215 22.5915C25.1861 22.2912 25.7978 21.8461 26.2454 21.1841C26.6916 20.5241 26.9982 19.6142 26.9982 18.3438C26.9982 18.3124 26.998 18.2811 26.9976 18.2501H16.9982V17.2501H26.9126C26.7918 16.5265 26.5515 15.9562 26.2454 15.5036C25.7978 14.8416 25.1861 14.3964 24.5215 14.0962C23.2552 13.5242 21.8535 13.5008 21.1987 13.5001H16.9982L16.9982 12.5001H21.0815C21.0987 12.5001 21.1169 12.5001 21.1361 12.5001C21.1777 12.5 21.2239 12.4999 21.2744 12.5001H30.9975L30.9981 13.5001H25.5359C26.1099 13.8456 26.6474 14.3127 27.0738 14.9435C27.4935 15.5641 27.7932 16.3248 27.9243 17.2501H30.9982V18.2501H27.9977Z" fill="#575757"/>
</svg>
