<svg width="23" height="44" viewBox="0 0 23 44" fill="none" xmlns="http://www.w3.org/2000/svg">
<path d="M11.9572 43.4451C11.7172 43.4451 11.5072 43.3551 11.3272 43.1751C11.1472 42.9951 11.0572 42.7851 11.0572 42.5451V37.5951L11.6422 38.1801C9.51219 38.1801 7.51719 37.8801 5.65719 37.2801C3.79719 36.6501 2.25219 35.7951 1.02219 34.7151C0.842188 34.5351 0.722188 34.3401 0.662188 34.1301C0.602187 33.9201 0.602187 33.7251 0.662188 33.5451C0.752187 33.3651 0.872188 33.2151 1.02219 33.0951C1.17219 32.9751 1.33719 32.9301 1.51719 32.9601C1.72719 32.9601 1.95219 33.0501 2.19219 33.2301C3.33219 34.1301 4.62219 34.8801 6.06219 35.4801C7.50219 36.0501 9.36219 36.3351 11.6422 36.3351C13.5622 36.3351 15.1522 36.0651 16.4122 35.5251C17.7022 34.9851 18.6622 34.2351 19.2922 33.2751C19.9522 32.2851 20.2822 31.1451 20.2822 29.8551C20.2822 28.8051 20.0422 27.9051 19.5622 27.1551C19.1122 26.4051 18.3922 25.7751 17.4022 25.2651C16.4122 24.7551 15.1072 24.3351 13.4872 24.0051L9.21219 23.1051C6.51219 22.5351 4.50219 21.5901 3.18219 20.2701C1.89219 18.9501 1.24719 17.1951 1.24719 15.0051C1.24719 13.2951 1.66719 11.7801 2.50719 10.4601C3.34719 9.11008 4.51719 8.06008 6.01719 7.31008C7.54719 6.53008 9.30219 6.12508 11.2822 6.09508L11.0572 6.68008V1.73008C11.0572 1.49008 11.1472 1.28008 11.3272 1.10008C11.5072 0.920078 11.7172 0.830078 11.9572 0.830078C12.1972 0.830078 12.4072 0.920078 12.5872 1.10008C12.7672 1.28008 12.8572 1.49008 12.8572 1.73008V6.68008L12.5422 6.14008C14.0722 6.17008 15.6322 6.51508 17.2222 7.17508C18.8422 7.83508 20.2072 8.76508 21.3172 9.96508C21.4672 10.1151 21.5422 10.2951 21.5422 10.5051C21.5722 10.6851 21.5422 10.8651 21.4522 11.0451C21.3922 11.1951 21.2872 11.3151 21.1372 11.4051C20.9872 11.4951 20.8072 11.5401 20.5972 11.5401C20.4172 11.5101 20.2222 11.3901 20.0122 11.1801C18.9022 10.1301 17.6722 9.33508 16.3222 8.79508C15.0022 8.22508 13.4122 7.94008 11.5522 7.94008C9.00219 7.94008 6.94719 8.58508 5.38719 9.87508C3.85719 11.1651 3.09219 12.8751 3.09219 15.0051C3.09219 16.7151 3.58719 18.0651 4.57719 19.0551C5.56719 20.0451 7.14219 20.7651 9.30219 21.2151L13.5772 22.1151C16.5172 22.7151 18.6922 23.6301 20.1022 24.8601C21.5122 26.0601 22.2172 27.7101 22.2172 29.8101C22.2172 31.4901 21.7822 32.9451 20.9122 34.1751C20.0722 35.4051 18.9022 36.3651 17.4022 37.0551C15.9322 37.7151 14.2222 38.0901 12.2722 38.1801L12.8572 37.5501V42.5451C12.8572 42.7851 12.7672 42.9951 12.5872 43.1751C12.4372 43.3551 12.2272 43.4451 11.9572 43.4451Z" fill="black" fill-opacity="0.53"/>
</svg>
