<svg width="44" height="35" viewBox="0 0 44 35" fill="none" xmlns="http://www.w3.org/2000/svg">
<path d="M15.4826 3.74907L5.14924 9.16574C3.2731 10.1492 2.33501 10.6409 1.83351 11.3207C1.33203 12.0004 1.33203 12.7802 1.33203 14.3399V20.3334C1.33203 26.6187 1.33203 29.7615 4.35859 31.714C7.38517 33.6667 12.2563 33.6667 21.9987 33.6667C31.741 33.6667 36.6124 33.6667 39.6387 31.714C42.6654 29.7615 42.6654 26.6187 42.6654 20.3334V14.3399C42.6654 12.7802 42.6654 12.0004 42.1639 11.3207C41.6623 10.6409 40.7243 10.1492 38.8482 9.16574L28.5149 3.74907C25.3937 2.11297 23.8331 1.29492 21.9987 1.29492C20.1643 1.29492 18.6037 2.11297 15.4826 3.74907Z" stroke="#575757" stroke-width="1.5"/>
</svg>
