<svg width="27" height="33" viewBox="0 0 27 33" fill="none" xmlns="http://www.w3.org/2000/svg">
<path d="M21.8786 32.2704C21.6986 32.2704 21.5336 32.2404 21.3836 32.1804C21.2636 32.1204 21.1586 32.0454 21.0686 31.9554C20.9786 31.8354 20.8886 31.7004 20.7986 31.5504L14.4536 21.8304C13.8236 20.8404 13.1786 20.0604 12.5186 19.4904C11.8886 18.8904 11.1686 18.4704 10.3586 18.2304C9.57859 17.9904 8.60359 17.8704 7.43359 17.8704H1.67359C1.37359 17.8704 1.13359 17.7954 0.953593 17.6454C0.773593 17.4654 0.683594 17.2404 0.683594 16.9704C0.683594 16.7004 0.773593 16.4904 0.953593 16.3404C1.13359 16.1904 1.37359 16.1154 1.67359 16.1154H10.4036C13.4636 16.1154 15.7286 15.4704 17.1986 14.1804C18.6686 12.8904 19.3436 10.9704 19.2236 8.42039L19.6286 8.73539H1.67359C1.37359 8.73539 1.13359 8.66039 0.953593 8.51039C0.773593 8.36039 0.683594 8.16539 0.683594 7.92539C0.683594 7.68539 0.773593 7.49039 0.953593 7.34039C1.13359 7.19039 1.37359 7.11539 1.67359 7.11539H19.6286L19.1336 7.56539C18.8936 5.70539 18.0686 4.29539 16.6586 3.33539C15.2486 2.37539 13.3136 1.89539 10.8536 1.89539H1.67359C1.37359 1.89539 1.13359 1.82039 0.953593 1.67039C0.773593 1.52039 0.683594 1.32539 0.683594 1.08539C0.683594 0.845391 0.773593 0.650391 0.953593 0.500391C1.13359 0.350391 1.37359 0.275391 1.67359 0.275391H25.2986C25.6286 0.275391 25.8686 0.350391 26.0186 0.500391C26.1986 0.650391 26.2886 0.845391 26.2886 1.08539C26.2886 1.32539 26.1986 1.52039 26.0186 1.67039C25.8686 1.82039 25.6286 1.89539 25.2986 1.89539H15.5336L16.4786 1.44539C17.7986 2.04539 18.8336 2.87039 19.5836 3.92039C20.3636 4.97039 20.8436 6.20039 21.0236 7.61039L20.4836 7.11539H25.2986C25.6286 7.11539 25.8686 7.19039 26.0186 7.34039C26.1986 7.49039 26.2886 7.68539 26.2886 7.92539C26.2886 8.16539 26.1986 8.36039 26.0186 8.51039C25.8686 8.66039 25.6286 8.73539 25.2986 8.73539H20.6186L21.1136 8.37539C21.2336 10.2954 20.8886 11.9604 20.0786 13.3704C19.2986 14.7804 18.0986 15.8604 16.4786 16.6104C14.8886 17.3604 12.9236 17.7354 10.5836 17.7354V17.3754H10.8536C11.8136 17.3754 12.7136 17.6604 13.5536 18.2304C14.3936 18.8004 15.2636 19.7754 16.1636 21.1554L22.4186 30.7404C22.5686 30.9804 22.6286 31.2204 22.5986 31.4604C22.5986 31.7004 22.5236 31.8954 22.3736 32.0454C22.2536 32.1954 22.0886 32.2704 21.8786 32.2704Z" fill="#343434" fill-opacity="0.61"/>
</svg>
