<svg width="46" height="41" viewBox="0 0 46 41" fill="none" xmlns="http://www.w3.org/2000/svg">
<path fill-rule="evenodd" clip-rule="evenodd" d="M13.4182 5.39773C9.35243 5.39773 6.05646 8.33543 6.05646 11.9593V29.0426C6.05646 32.6665 9.35243 35.6042 13.4182 35.6042H32.5849C36.6506 35.6042 39.9466 32.6665 39.9466 29.0426V11.9593C39.9466 8.33543 36.6506 5.39773 32.5849 5.39773H13.4182ZM4.48828 11.9593C4.48828 7.56349 8.48634 4 13.4182 4H32.5849C37.5167 4 41.5148 7.56349 41.5148 11.9593V29.0426C41.5148 33.4384 37.5167 37.0019 32.5849 37.0019H13.4182C8.48634 37.0019 4.48828 33.4384 4.48828 29.0426V11.9593Z" fill="#787878"/>
<path fill-rule="evenodd" clip-rule="evenodd" d="M19.7032 25.1148C20.0191 25.3788 20.0351 25.821 19.7389 26.1026L16.1452 29.5193C15.9969 29.6602 15.7899 29.7402 15.5732 29.7402C15.3564 29.7402 15.1494 29.6602 15.0011 29.5193L12.8449 27.4693C12.5487 27.1877 12.5647 26.7454 12.8806 26.4815C13.1966 26.2175 13.6928 26.2318 13.9889 26.5133L15.5732 28.0195L18.5949 25.1467C18.8911 24.8651 19.3873 24.8508 19.7032 25.1148Z" fill="#787878"/>
<path fill-rule="evenodd" clip-rule="evenodd" d="M19.7032 11.4488C20.0191 11.7128 20.0351 12.155 19.7389 12.4366L16.1452 15.8533C15.9969 15.9942 15.7899 16.0742 15.5732 16.0742C15.3564 16.0742 15.1494 15.9942 15.0011 15.8533L12.8449 13.8033C12.5487 13.5217 12.5647 13.0794 12.8806 12.8155C13.1966 12.5515 13.6928 12.5657 13.9889 12.8473L15.5732 14.3535L18.5949 11.4806C18.8911 11.1991 19.3873 11.1848 19.7032 11.4488Z" fill="#787878"/>
<path fill-rule="evenodd" clip-rule="evenodd" d="M24.1328 13.6676C24.1328 13.2816 24.4839 12.9688 24.9169 12.9688H32.5836C33.0166 12.9688 33.3677 13.2816 33.3677 13.6676C33.3677 14.0536 33.0166 14.3665 32.5836 14.3665H24.9169C24.4839 14.3665 24.1328 14.0536 24.1328 13.6676Z" fill="#787878"/>
<path fill-rule="evenodd" clip-rule="evenodd" d="M24.1328 27.3336C24.1328 26.9477 24.4839 26.6348 24.9169 26.6348H32.5836C33.0166 26.6348 33.3677 26.9477 33.3677 27.3336C33.3677 27.7196 33.0166 28.0325 32.5836 28.0325H24.9169C24.4839 28.0325 24.1328 27.7196 24.1328 27.3336Z" fill="#787878"/>
</svg>
