<svg width="36" height="36" viewBox="0 0 36 36" fill="none" xmlns="http://www.w3.org/2000/svg">
<path fill-rule="evenodd" clip-rule="evenodd" d="M8.83463 1.79102C4.94563 1.79102 1.79297 4.94368 1.79297 8.83268V27.166C1.79297 31.055 4.94563 34.2077 8.83463 34.2077H27.168C31.057 34.2077 34.2096 31.055 34.2096 27.166V8.83268C34.2096 4.94368 31.057 1.79102 27.168 1.79102H8.83463ZM0.292969 8.83268C0.292969 4.11525 4.1172 0.291016 8.83463 0.291016H27.168C31.8854 0.291016 35.7096 4.11525 35.7096 8.83268V27.166C35.7096 31.8834 31.8854 35.7077 27.168 35.7077H8.83463C4.1172 35.7077 0.292969 31.8834 0.292969 27.166V8.83268Z" fill="#787878"/>
</svg>
