<svg width="57" height="42" viewBox="0 0 57 42" fill="none" xmlns="http://www.w3.org/2000/svg">
<path d="M7.78791 23.7087C8.05474 20.5627 8.24759 18.3314 8.69473 16.6431C9.13204 14.9919 9.77063 14.042 10.7633 13.3548C11.756 12.6676 13.0825 12.2572 15.3464 12.0387C17.6611 11.8151 20.6954 11.8125 24.9731 11.8125H32.024C36.3016 11.8125 39.3359 11.8151 41.6508 12.0387C43.9147 12.2572 45.2411 12.6676 46.2339 13.3548C47.2264 14.042 47.865 14.9919 48.3025 16.6431C48.7495 18.3314 48.9423 20.5627 49.2093 23.7087C49.508 27.2332 49.717 29.7414 49.5242 31.6494C49.3354 33.5197 48.7761 34.5989 47.7619 35.3943C46.7478 36.1896 45.3209 36.6683 42.7996 36.9238C40.2273 37.1845 36.8168 37.1875 32.024 37.1875H24.9731C20.1804 37.1875 16.7699 37.1845 14.1975 36.9238C11.6761 36.6683 10.2492 36.1896 9.23521 35.3943C8.22116 34.5989 7.6617 33.5197 7.47284 31.6494C7.28016 29.7414 7.48894 27.2332 7.78791 23.7087Z" stroke="#575757" stroke-width="1.5"/>
<path fill-rule="evenodd" clip-rule="evenodd" d="M18.6475 15.75C19.9252 15.75 20.7388 14.6424 20.4313 13.7286C20.272 13.2551 20.1875 12.7598 20.1875 12.25C20.1875 8.86725 23.9091 6.125 28.5 6.125C33.0909 6.125 36.8125 8.86725 36.8125 12.25C36.8125 12.7598 36.7279 13.2551 36.5686 13.7286C36.2613 14.6424 37.0749 15.75 38.3524 15.75C38.9809 15.75 39.5587 15.4779 39.7589 15.0391C40.1584 14.1631 40.375 13.2252 40.375 12.25C40.375 7.41752 35.0583 3.5 28.5 3.5C21.9416 3.5 16.625 7.41752 16.625 12.25C16.625 13.2252 16.8415 14.1631 17.241 15.0391C17.4412 15.4779 18.0192 15.75 18.6475 15.75Z" fill="#575757"/>
<path d="M20.1875 22.75C20.8433 22.75 21.375 22.3582 21.375 21.875C21.375 21.3918 20.8433 21 20.1875 21C19.5317 21 19 21.3918 19 21.875C19 22.3582 19.5317 22.75 20.1875 22.75Z" stroke="#575757"/>
<path d="M36.8125 22.75C37.4683 22.75 38 22.3582 38 21.875C38 21.3918 37.4683 21 36.8125 21C36.1567 21 35.625 21.3918 35.625 21.875C35.625 22.3582 36.1567 22.75 36.8125 22.75Z" stroke="#575757"/>
</svg>
